<?xml version="1.0" encoding="UTF-8" standalone="no"?>
<!-- Created with Inkscape (http://www.inkscape.org/) -->

<svg
   width="174.76591mm"
   height="55.870083mm"
   viewBox="0 0 174.76591 55.870083"
   version="1.1"
   id="svg1"
   inkscape:version="1.3 (0e150ed, 2023-07-21)"
   sodipodi:docname="logo.svg"
   xmlns:inkscape="http://www.inkscape.org/namespaces/inkscape"
   xmlns:sodipodi="http://sodipodi.sourceforge.net/DTD/sodipodi-0.dtd"
   xmlns="http://www.w3.org/2000/svg"
   xmlns:svg="http://www.w3.org/2000/svg">
  <sodipodi:namedview
     id="namedview1"
     pagecolor="#000000"
     bordercolor="#000000"
     borderopacity="0.25"
     inkscape:showpageshadow="2"
     inkscape:pageopacity="0.0"
     inkscape:pagecheckerboard="0"
     inkscape:deskcolor="#d1d1d1"
     inkscape:document-units="mm"
     inkscape:zoom="0.78867946"
     inkscape:cx="334.73675"
     inkscape:cy="68.468881"
     inkscape:window-width="1440"
     inkscape:window-height="803"
     inkscape:window-x="0"
     inkscape:window-y="25"
     inkscape:window-maximized="1"
     inkscape:current-layer="layer1" />
  <defs
     id="defs1">
    <rect
       x="16.468819"
       y="236.55212"
       width="634.7981"
       height="242.54079"
       id="rect1" />
  </defs>
  <g
     inkscape:label="Layer 1"
     inkscape:groupmode="layer"
     id="layer1"
     transform="translate(4.5776368e-8,-72.191889)">
    <path
       sodipodi:type="star"
       style="fill:#ffffff;fill-opacity:0;stroke:#38bdf8;stroke-width:1.27;stroke-opacity:1"
       id="path2"
       inkscape:flatsided="true"
       sodipodi:sides="10"
       sodipodi:cx="57.834248"
       sodipodi:cy="26.540375"
       sodipodi:r1="28.512497"
       sodipodi:r2="29.99264"
       sodipodi:arg1="1.2503531"
       sodipodi:arg2="1.5645124"
       inkscape:rounded="0"
       inkscape:randomized="0"
       d="M 66.815321,53.601469 49.193976,53.712202 34.872922,43.444221 29.322314,26.719545 34.662295,9.9264322 48.853174,-0.52071921 66.474519,-0.63145252 80.795573,9.6365287 86.346182,26.361205 81.0062,43.154317 Z"
       transform="translate(14.909141,73.459625)" />
    <path
       sodipodi:type="star"
       style="fill:#ffffff;fill-opacity:0;stroke:#38bdf8;stroke-width:1.27;stroke-opacity:1"
       id="path2-9"
       inkscape:flatsided="true"
       sodipodi:sides="10"
       sodipodi:cx="57.834248"
       sodipodi:cy="26.540375"
       sodipodi:r1="28.512497"
       sodipodi:r2="29.99264"
       sodipodi:arg1="1.2503531"
       sodipodi:arg2="1.5645124"
       inkscape:rounded="0"
       inkscape:randomized="0"
       d="M 66.815321,53.601469 49.193976,53.712202 34.872922,43.444221 29.322314,26.719545 34.662295,9.9264322 48.853174,-0.52071921 66.474519,-0.63145252 80.795573,9.6365287 86.346182,26.361205 81.0062,43.154317 Z"
       transform="translate(43.73052,73.713487)" />
    <g
       id="text2"
       style="font-weight:500;font-size:50.8px;line-height:0;font-family:'JetBrainsMono Nerd Font';-inkscape-font-specification:'JetBrainsMono Nerd Font, Medium';letter-spacing:5.29167px;fill:#ffffff;stroke:#ffffff;stroke-width:1.27"
       aria-label="DECAGON">
      <path
         style="font-weight:normal;font-size:35.2778px;-inkscape-font-specification:'JetBrainsMono Nerd Font, Normal'"
         d="M 0.63499994,112.8764 V 87.123609 H 7.3025044 q 2.5047239,0 4.3038916,0.9525 1.834446,0.952501 2.822224,2.681113 1.023057,1.728613 1.023057,4.092225 v 10.265843 q 0,2.36361 -1.023057,4.1275 -0.987778,1.72861 -2.822224,2.68111 -1.7991677,0.9525 -4.3038916,0.9525 z m 3.17500216,-2.82222 h 3.4925023 q 2.3283349,0 3.6336136,-1.30528 1.340556,-1.30528 1.340556,-3.63361 V 94.849447 q 0,-2.293057 -1.340556,-3.598336 Q 9.6308393,89.945833 7.3025044,89.945833 H 3.8100021 Z M 27.37552,112.8764 V 87.123609 h 14.816677 v 2.892779 H 30.515244 v 7.972784 h 10.44223 v 2.822228 h -10.44223 v 9.17222 h 11.676953 v 2.89278 z"
         id="path1" />
      <path
         d="m 61.171601,113.22918 q -3.527781,0 -5.573893,-1.97556 -2.046113,-1.97555 -2.046113,-5.43278 V 94.179169 q 0,-3.457225 2.046113,-5.432781 2.046112,-1.975557 5.573893,-1.975557 3.457224,0 5.503337,2.010834 2.046112,1.975557 2.046112,5.397504 h -3.175002 q 0,-2.187224 -1.164168,-3.351391 -1.128889,-1.199445 -3.210279,-1.199445 -2.081391,0 -3.280836,1.199445 -1.164167,1.164167 -1.164167,3.351391 v 11.641671 q 0,2.18723 1.164167,3.38667 1.199445,1.16417 3.280836,1.16417 2.08139,0 3.210279,-1.16417 1.164168,-1.19944 1.164168,-3.38667 h 3.175002 q 0,3.42195 -2.046112,5.43278 -2.046113,1.97556 -5.503337,1.97556 z m 17.356624,-0.35278 6.702783,-25.752791 h 4.268614 l 6.667504,25.752791 h -3.21028 l -1.693334,-6.84389 h -7.796394 l -1.693335,6.84389 z m 5.573893,-9.525 h 6.491116 l -1.975557,-7.937508 q -0.564445,-2.257779 -0.881945,-3.774725 -0.317501,-1.516945 -0.388056,-1.975557 -0.07056,0.458612 -0.388056,1.975557 -0.3175,1.516946 -0.881945,3.739447 z m 29.844962,9.87778 q -3.52778,0 -5.57389,-1.97556 -2.04611,-1.97555 -2.04611,-5.43278 V 94.179169 q 0,-3.457225 2.04611,-5.432781 2.04611,-1.975557 5.57389,-1.975557 3.45723,0 5.50334,2.010834 2.04611,1.975557 2.04611,5.397504 h -3.175 q 0,-2.187224 -1.16417,-3.351391 -1.12888,-1.199445 -3.21028,-1.199445 -2.08139,0 -3.28083,1.164167 -1.16417,1.164168 -1.16417,3.351391 v 11.676949 q 0,2.18723 1.16417,3.38667 1.19944,1.19945 3.28083,1.19945 2.0814,0 3.21028,-1.19945 1.16417,-1.19944 1.16417,-3.38667 v -3.52778 h -5.22111 v -2.892776 h 8.39611 v 6.420556 q 0,3.42195 -2.04611,5.43278 -2.04611,1.97556 -5.50334,1.97556 z"
         id="path3" />
      <path
         style="font-weight:normal;font-size:35.2778px;-inkscape-font-specification:'JetBrainsMono Nerd Font, Normal'"
         d="m 140.26427,113.22918 q -3.45722,0 -5.46806,-2.01083 -2.01083,-2.01084 -2.01083,-5.75028 V 94.531947 q 0,-3.739447 2.01083,-5.750282 2.01084,-2.010834 5.46806,-2.010834 3.45723,0 5.46806,2.010834 2.01084,2.010835 2.01084,5.715004 v 10.971401 q 0,3.73944 -2.01084,5.75028 -2.01083,2.01083 -5.46806,2.01083 z m 0,-2.8575 q 2.08139,0 3.175,-1.16417 1.12889,-1.19944 1.12889,-3.38667 V 94.179169 q 0,-2.187224 -1.12889,-3.351391 -1.09361,-1.199445 -3.175,-1.199445 -2.04611,0 -3.175,1.199445 -1.12889,1.164167 -1.12889,3.351391 v 11.641671 q 0,2.18723 1.12889,3.38667 1.12889,1.16417 3.175,1.16417 z m 19.04996,2.50472 V 87.123609 h 4.23334 l 7.86695,22.048621 q -0.0706,-0.88194 -0.17639,-2.15194 -0.0706,-1.30528 -0.14111,-2.71639 -0.0353,-1.44639 -0.0353,-2.71639 V 87.123609 h 3.06917 V 112.8764 h -4.23334 L 162.0659,90.827778 q 0.0705,0.846667 0.14111,2.151946 0.0706,1.270001 0.10583,2.71639 0.0706,1.411113 0.0706,2.716391 V 112.8764 Z"
         id="path4" />
    </g>
    <text
       xml:space="preserve"
       style="font-style:normal;font-variant:normal;font-weight:normal;font-stretch:normal;font-size:35.2777px;line-height:0;font-family:'JetBrainsMono Nerd Font';-inkscape-font-specification:'JetBrainsMono Nerd Font, Normal';font-variant-ligatures:normal;font-variant-caps:normal;font-variant-numeric:normal;font-variant-east-asian:normal;letter-spacing:2.11138px;fill:#ffffff;fill-opacity:1;stroke:#f8f8f8;stroke-width:1.27;stroke-opacity:1"
       x="2.6414793"
       y="161.39438"
       id="text3"><tspan
         sodipodi:role="line"
         id="tspan3"
         style="fill:#ffffff;fill-opacity:1;stroke:#f8f8f8;stroke-width:1.27;stroke-opacity:1"
         x="2.6414793"
         y="161.39438" /></text>
  </g>
</svg>
